<svg width="24" height="24" viewBox="0 0 24 24" fill="none" xmlns="http://www.w3.org/2000/svg">
<g clip-path="url(#clip0_18_39844)">
<path d="M23.1086 12.8846C22.9393 15.0112 22.1632 17.0445 20.8724 18.7429C19.5816 20.4414 17.8303 21.7336 15.8267 22.4661C13.8231 23.1986 11.6513 23.3405 9.56944 22.875C7.48754 22.4095 5.58302 21.3562 4.08215 19.8401C2.58127 18.3241 1.54713 16.4091 1.10259 14.3226C0.658045 12.2362 0.821785 10.0659 1.57435 8.06977C2.32692 6.07361 3.63669 4.33544 5.34804 3.06176C7.05939 1.78808 9.1004 1.03243 11.2286 0.884583" stroke="white" stroke-linecap="round" stroke-linejoin="round"/>
<path d="M16.7829 13.8686C16.4733 14.6654 15.97 15.3724 15.3185 15.9258C14.667 16.4792 13.8878 16.8615 13.0514 17.038C12.215 17.2146 11.3478 17.1799 10.5282 16.9371C9.70862 16.6943 8.96247 16.251 8.35724 15.6473C7.75202 15.0437 7.30681 14.2987 7.06188 13.4797C6.81695 12.6607 6.78003 11.7936 6.95445 10.9568C7.12886 10.1199 7.50912 9.33976 8.06083 8.68682C8.61254 8.03388 9.31831 7.52877 10.1143 7.21715M12 12L16.2857 7.71429M16.2857 7.71429L19.7143 8.57143L23.1429 5.14286L19.7143 4.28572L18.8572 0.857147L15.4286 4.28572L16.2857 7.71429Z" stroke="white" stroke-linecap="round" stroke-linejoin="round"/>
</g>
<defs>
<clipPath id="clip0_18_39844">
<rect width="24" height="24" fill="white"/>
</clipPath>
</defs>
</svg>
