<svg width="24" height="24" viewBox="0 0 24 24" fill="none" xmlns="http://www.w3.org/2000/svg">
<path d="M14.609 21.25C18.2767 21.25 21.25 18.2767 21.25 14.609C21.25 10.9413 18.2767 7.96802 14.609 7.96802C10.9413 7.96802 7.96802 10.9413 7.96802 14.609C7.96802 18.2767 10.9413 21.25 14.609 21.25Z" stroke="#EAF1F0" stroke-linecap="round" stroke-linejoin="round"/>
<path d="M12.5574 17.147C12.7541 17.3953 13.0076 17.5927 13.2964 17.7227C13.5853 17.8527 13.9011 17.9114 14.2174 17.894H15.2139C15.6542 17.894 16.0765 17.7191 16.3879 17.4077C16.6993 17.0964 16.8742 16.6741 16.8742 16.2338C16.8742 15.7934 16.6993 15.3711 16.3879 15.0598C16.0765 14.7484 15.6542 14.5735 15.2139 14.5735H14.1344C13.6941 14.5735 13.2718 14.3986 12.9604 14.0872C12.6491 13.7759 12.4742 13.3536 12.4742 12.9133C12.4742 12.4729 12.6491 12.0506 12.9604 11.7393C13.2718 11.4279 13.6941 11.253 14.1344 11.253H15.1309C15.4492 11.2169 15.7714 11.2672 16.0635 11.3986C16.3556 11.5301 16.6069 11.7378 16.7909 12M14.6324 10.34V18.641M8.24742 12.346C8.0234 12.1361 7.84504 11.8823 7.72348 11.6004C7.60193 11.3184 7.53978 11.0145 7.54092 10.7075V8.549C7.53973 8.25434 7.5969 7.96235 7.70913 7.68989C7.82136 7.41743 7.98643 7.16988 8.19482 6.96154C8.4032 6.7532 8.65078 6.58819 8.92327 6.47602C9.19575 6.36385 9.48775 6.30675 9.78242 6.308C10.1154 6.3141 10.4432 6.39132 10.7439 6.53447C11.0446 6.67762 11.3112 6.88339 11.5259 7.138M6.54492 8.715H9.36742M6.54492 10.375H9.36742" stroke="#EAF1F0" stroke-linecap="round" stroke-linejoin="round"/>
<path d="M8.00989 15.887C6.8408 15.6385 5.76047 15.079 4.88284 14.2677C4.0052 13.4563 3.3628 12.4231 3.02339 11.2771C2.68399 10.1311 2.66015 8.91472 2.9544 7.75629C3.24865 6.59787 3.85008 5.54032 4.69525 4.6952C5.54043 3.85008 6.59801 3.24872 7.75646 2.95454C8.91491 2.66036 10.1313 2.68428 11.2773 3.02376C12.4233 3.36324 13.4564 4.00571 14.2677 4.88339C15.079 5.76107 15.6384 6.84144 15.8869 8.01054" stroke="#EAF1F0" stroke-linecap="round" stroke-linejoin="round"/>
</svg>
