<svg width="48" height="48" viewBox="0 0 48 48" fill="none" xmlns="http://www.w3.org/2000/svg">
<path d="M23.76 29.0175H23.865C26.115 29.0775 27.915 30.9075 27.915 33.1575C27.915 35.0775 26.61 36.6825 24.84 37.1625V38.8425C24.84 39.4425 24.36 39.9225 23.76 39.9225C23.16 39.9225 22.68 39.4425 22.68 38.8425V37.1625C21.7986 36.9255 21.0198 36.4048 20.464 35.6809C19.9082 34.957 19.6063 34.0702 19.605 33.1575C19.605 32.5575 20.085 32.0775 20.685 32.0775C21.285 32.0775 21.765 32.5575 21.765 33.1575C21.765 34.2675 22.65 35.1525 23.745 35.1525C24.84 35.1525 25.74 34.2525 25.74 33.1575C25.74 32.0625 24.84 31.1625 23.745 31.1625H23.64C22.5609 31.1332 21.5358 30.6844 20.7823 29.9114C20.0289 29.1383 19.6065 28.102 19.605 27.0225C19.605 25.1025 20.91 23.4975 22.68 23.0175V21.3375C22.68 20.7375 23.16 20.2575 23.76 20.2575C24.36 20.2575 24.84 20.7375 24.84 21.3375V23.0175C26.61 23.4975 27.915 25.1025 27.915 27.0225C27.915 27.6225 27.435 28.1025 26.835 28.1025C26.235 28.1025 25.755 27.6225 25.755 27.0225C25.755 25.9275 24.855 25.0275 23.76 25.0275C22.665 25.0275 21.765 25.9275 21.765 27.0225C21.765 28.1175 22.665 29.0175 23.76 29.0175Z" fill="white"/>
<path d="M15.798 7.65L19.977 12.54L19.5255 13.044C10.9245 14.973 4.5 22.6545 4.5 31.8375C4.5 39.9105 11.052 46.4625 19.125 46.4625H28.38C36.453 46.4625 43.005 39.912 43.005 31.839C43.02 22.6545 36.5955 14.973 27.9945 13.044C28.0295 12.727 27.9722 12.4067 27.8295 12.1215L31.3845 8.052L31.614 7.698C31.882 7.1135 31.9505 6.45714 31.8091 5.82987C31.6677 5.2026 31.3241 4.63916 30.8312 4.22621C30.3383 3.81326 29.7234 3.57366 29.0811 3.54426C28.4388 3.51486 27.8045 3.6973 27.276 4.0635L26.0115 2.5635C25.7278 2.24608 25.3805 1.99198 24.9921 1.81778C24.6036 1.64357 24.1829 1.55317 23.7572 1.55246C23.3315 1.55176 22.9104 1.64076 22.5214 1.81367C22.1324 1.98658 21.7842 2.23952 21.4995 2.556L20.175 4.035C19.6478 3.66118 19.0122 3.47147 18.3663 3.49523C17.7205 3.51898 17.1005 3.75487 16.6022 4.16641C16.1039 4.57796 15.7551 5.14222 15.6097 5.77192C15.4644 6.40162 15.5305 7.06168 15.798 7.65ZM21.4965 9.7275L18.9525 6.7875C19.5435 7.07229 20.2123 7.15316 20.8541 7.01746C21.496 6.88175 22.0748 6.53714 22.5 6.0375L23.7 4.4805L25.032 6.0585C25.4473 6.54147 26.0076 6.87732 26.6293 7.01598C27.251 7.15465 27.9008 7.08871 28.482 6.828L25.95 9.7275H21.4965ZM7.5 31.8375C7.5 22.8555 14.778 15.5775 23.76 15.5775C32.742 15.5775 40.02 22.8555 40.005 31.8345V31.8375C40.0038 34.9203 38.7787 37.8764 36.5988 40.0563C34.4189 42.2361 31.4628 43.4613 28.38 43.4625H19.125C16.0422 43.4613 13.0861 42.2361 10.9062 40.0563C8.72635 37.8764 7.50119 34.9203 7.5 31.8375Z" fill="white"/>
</svg>
