<svg width="24" height="24" viewBox="0 0 24 24" fill="none" xmlns="http://www.w3.org/2000/svg">
<path d="M12 18.5C12.4167 18.5 12.771 18.3543 13.063 18.063C13.355 17.7717 13.5007 17.4173 13.5 17H10.5C10.5 17.4167 10.646 17.771 10.938 18.063C11.23 18.355 11.584 18.5007 12 18.5ZM7 16H17V14H16V11.4C16 10.3833 15.7373 9.45433 15.212 8.613C14.6867 7.77167 13.9493 7.234 13 7V6.5C13 6.21667 12.904 5.97933 12.712 5.788C12.52 5.59667 12.2827 5.50067 12 5.5C11.7167 5.5 11.4793 5.596 11.288 5.788C11.0967 5.98 11.0007 6.21733 11 6.5V7C10.05 7.23333 9.31267 7.771 8.788 8.613C8.26333 9.455 8.00067 10.384 8 11.4V14H7V16ZM12 22C10.6167 22 9.31667 21.7373 8.1 21.212C6.88333 20.6867 5.825 19.9743 4.925 19.075C4.025 18.175 3.31267 17.1167 2.788 15.9C2.26333 14.6833 2.00067 13.3833 2 12C2 10.6167 2.26267 9.31667 2.788 8.1C3.31333 6.88333 4.02567 5.825 4.925 4.925C5.825 4.025 6.88333 3.31267 8.1 2.788C9.31667 2.26333 10.6167 2.00067 12 2C13.3833 2 14.6833 2.26267 15.9 2.788C17.1167 3.31333 18.175 4.02567 19.075 4.925C19.975 5.825 20.6877 6.88333 21.213 8.1C21.7383 9.31667 22.0007 10.6167 22 12C22 13.3833 21.7373 14.6833 21.212 15.9C20.6867 17.1167 19.9743 18.175 19.075 19.075C18.175 19.975 17.1167 20.6877 15.9 21.213C14.6833 21.7383 13.3833 22.0007 12 22Z" fill="#EAF1F0"/>
</svg>
