<svg width="32" height="32" viewBox="0 0 32 32" fill="none" xmlns="http://www.w3.org/2000/svg">
<path d="M15.9 29.7C8.92502 29.7 1.40002 25.325 1.40002 15.725C1.40002 6.125 8.92502 1.75 15.9 1.75C19.775 1.75 23.35 3.025 26 5.35C28.875 7.9 30.4 11.5 30.4 15.725C30.4 19.95 28.875 23.525 26 26.075C23.35 28.4 19.75 29.7 15.9 29.7Z" fill="url(#paint0_radial_140_40645)"/>
<path d="M27.8725 7.41748C29.205 9.56748 29.9 12.1275 29.9 14.975C29.9 19.2 28.375 22.775 25.5 25.325C22.85 27.65 19.25 28.95 15.4 28.95C10.885 28.95 6.14998 27.1125 3.35498 23.215C6.04498 27.63 11.105 29.7 15.9 29.7C19.75 29.7 23.35 28.4 26 26.075C28.875 23.525 30.4 19.95 30.4 15.725C30.4 12.54 29.5325 9.70998 27.8725 7.41748Z" fill="#EB8F00"/>
<path d="M16 21.7875C18.705 21.7875 20.4575 23.7675 20.9125 24.68C21.0875 25.0325 21.0975 25.325 20.9475 25.4625C20.79 25.565 20.585 25.565 20.4275 25.4625C20.35 25.425 20.2725 25.3825 20.2025 25.3325C18.9775 24.4546 17.5083 23.9825 16.0012 23.9825C14.4942 23.9825 13.025 24.4546 11.8 25.3325C11.73 25.3825 11.655 25.425 11.575 25.4625C11.4175 25.5675 11.2125 25.5675 11.055 25.4625C10.905 25.325 10.915 25.0325 11.09 24.68C11.5425 23.77 13.295 21.7875 16 21.7875ZM6.84749 9.94246C6.29749 10.04 6.26999 10.84 6.86999 10.8675C8.19499 10.8875 9.47499 10.3975 10.45 9.49996C10.8206 9.1811 11.1342 8.80152 11.3775 8.37746C11.5225 8.16996 11.4725 7.88496 11.2675 7.73746C11.0625 7.58996 10.775 7.64246 10.6275 7.84746L10.6025 7.87246C9.61999 8.96996 8.29749 9.69746 6.84749 9.94246ZM21.53 7.87996L21.505 7.85496C21.4349 7.75534 21.3282 7.68756 21.2082 7.66647C21.0883 7.64538 20.9648 7.67271 20.865 7.74246C20.8156 7.77711 20.7735 7.82121 20.7412 7.8722C20.7089 7.92319 20.687 7.98007 20.6768 8.03956C20.6665 8.09905 20.6682 8.15998 20.6816 8.21883C20.695 8.27768 20.72 8.33329 20.755 8.38246C21 8.80496 21.315 9.18246 21.6875 9.49996C22.6625 10.3975 23.9425 10.885 25.2675 10.8625C25.8675 10.835 25.84 10.035 25.2875 9.93746C23.8375 9.69496 22.515 8.96996 21.53 7.87996Z" fill="#422B0D"/>
<path d="M4.88 26.75C2.765 26.75 1.13 24.6975 1.13 22.94C1.13 21.705 1.6825 20.2725 2.465 18.2875C2.5625 17.995 2.6925 17.7 2.8225 17.375C3.195 16.445 3.5225 15.4375 4.0225 14.565C4.09877 14.4284 4.2101 14.3147 4.34502 14.2355C4.47994 14.1563 4.63356 14.1145 4.79 14.1145C4.94645 14.1145 5.10007 14.1563 5.23499 14.2355C5.36991 14.3147 5.48124 14.4284 5.5575 14.565C6.0225 15.4225 6.3425 16.35 6.825 17.4325C8.1925 20.4925 8.575 21.73 8.575 22.965C8.6225 24.7075 6.9625 26.75 4.88 26.75Z" fill="url(#paint1_radial_140_40645)"/>
<path d="M7.16748 24.4125C6.68998 25.1625 5.60498 25.0125 5.60498 23.785C5.60498 23 5.76498 18.97 6.43998 19.535C7.53498 20.4525 7.84748 23.3675 7.16748 24.4125Z" fill="#81D4FA"/>
<path d="M11.1675 13.735C10.12 13.735 9.16748 14.62 9.16748 16.09C9.16748 17.56 10.12 18.4425 11.1675 18.4425C12.215 18.4425 13.1675 17.5575 13.1675 16.09C13.1675 14.6225 12.215 13.735 11.1675 13.735Z" fill="#422B0D"/>
<path d="M11.07 14.7175C10.8988 14.6361 10.7024 14.6256 10.5235 14.6883C10.3446 14.7511 10.1978 14.882 10.115 15.0525C9.98246 15.33 10.0425 15.6625 10.265 15.8775C10.62 16.0475 11.0475 15.8975 11.22 15.5425C11.3525 15.265 11.2925 14.9325 11.07 14.7175Z" fill="#896024"/>
<path d="M20.75 13.735C19.7025 13.735 18.75 14.62 18.75 16.09C18.75 17.56 19.7025 18.4425 20.75 18.4425C21.7975 18.4425 22.75 17.5575 22.75 16.09C22.75 14.6225 21.8025 13.735 20.75 13.735Z" fill="#422B0D"/>
<path d="M20.6575 14.7175C20.4863 14.6361 20.2899 14.6256 20.111 14.6883C19.9321 14.7511 19.7853 14.882 19.7025 15.0525C19.57 15.33 19.63 15.6625 19.8525 15.8775C20.2075 16.0475 20.635 15.8975 20.8075 15.5425C20.94 15.265 20.88 14.9325 20.6575 14.7175Z" fill="#896024"/>
<defs>
<radialGradient id="paint0_radial_140_40645" cx="0" cy="0" r="1" gradientUnits="userSpaceOnUse" gradientTransform="translate(15.9 15.725) scale(14.24)">
<stop offset="0.5" stop-color="#FDE030"/>
<stop offset="0.92" stop-color="#F7C02B"/>
<stop offset="1" stop-color="#F4A223"/>
</radialGradient>
<radialGradient id="paint1_radial_140_40645" cx="0" cy="0" r="1" gradientUnits="userSpaceOnUse" gradientTransform="translate(5.14751 15.7351) scale(8.35 12.859)">
<stop offset="0.46" stop-color="#29B6F6"/>
<stop offset="1" stop-color="#1E88E5"/>
</radialGradient>
</defs>
</svg>
